# MagicaVoxel @ Ephtracy

# group
o 

# material
mtllib SM_Sea_Gull_A1_ML.mtl
usemtl palette

# normals
vn -1 0 0
vn 1 0 0
vn 0 0 1
vn 0 0 -1
vn 0 -1 0
vn 0 1 0

# texcoords
vt 0.943359 0.5
vt 0.994141 0.5

# verts
v 0.7 2.1 -1.5
v 0.7 2.1 -1.8
v 0.7 2.2 -1.5
v 0.7 2.2 -1.8
v 1.9 2 -0.9
v 1.9 2 -1
v 1.9 2 -2.6
v 1.9 2.1 -0.6
v 1.9 2.1 -0.9
v 1.9 2.1 -2.6
v 1.9 2.1 -2.9
v 1.9 2.2 -0.6
v 1.9 2.2 -1
v 1.9 2.2 -2.7
v 1.9 2.2 -2.9
v 1.9 2.3 -1
v 1.9 2.3 -2.7
v 2.2 2.1 -1.5
v 2.2 2.1 -1.8
v 2.2 2.2 -1.5
v 2.2 2.2 -1.8
v 1.8 2.1 -1.5
v 1.8 2.1 -1.8
v 1.8 2.2 -1.5
v 1.8 2.2 -1.8
v 2.1 2 -0.9
v 2.1 2 -1
v 2.1 2 -2.6
v 2.1 2.1 -0.6
v 2.1 2.1 -0.9
v 2.1 2.1 -2.6
v 2.1 2.1 -2.9
v 2.1 2.2 -0.6
v 2.1 2.2 -1
v 2.1 2.2 -2.7
v 2.1 2.2 -2.9
v 2.1 2.3 -1
v 2.1 2.3 -2.7
v 3.3 2.1 -1.5
v 3.3 2.1 -1.8
v 3.3 2.2 -1.5
v 3.3 2.2 -1.8
v 1.9 2.1 -0.6
v 1.9 2.2 -0.6
v 2.1 2.1 -0.6
v 2.1 2.2 -0.6
v 1.9 2 -0.9
v 1.9 2.1 -0.9
v 2.1 2 -0.9
v 2.1 2.1 -0.9
v 1.9 2.2 -1
v 1.9 2.3 -1
v 2.1 2.2 -1
v 2.1 2.3 -1
v 0.7 2.1 -1.5
v 0.7 2.2 -1.5
v 1.8 2.1 -1.5
v 1.8 2.2 -1.5
v 2.2 2.1 -1.5
v 2.2 2.2 -1.5
v 3.3 2.1 -1.5
v 3.3 2.2 -1.5
v 0.7 2.1 -1.8
v 0.7 2.2 -1.8
v 1.8 2.1 -1.8
v 1.8 2.2 -1.8
v 2.2 2.1 -1.8
v 2.2 2.2 -1.8
v 3.3 2.1 -1.8
v 3.3 2.2 -1.8
v 1.9 2 -2.6
v 1.9 2.1 -2.6
v 2.1 2 -2.6
v 2.1 2.1 -2.6
v 1.9 2.2 -2.7
v 1.9 2.3 -2.7
v 2.1 2.2 -2.7
v 2.1 2.3 -2.7
v 1.9 2.1 -2.9
v 1.9 2.2 -2.9
v 2.1 2.1 -2.9
v 2.1 2.2 -2.9
v 1.9 2 -0.9
v 2.1 2 -0.9
v 1.9 2 -1
v 2.1 2 -1
v 1.9 2 -2.6
v 2.1 2 -2.6
v 1.9 2.1 -0.6
v 2.1 2.1 -0.6
v 1.9 2.1 -0.9
v 2.1 2.1 -0.9
v 0.7 2.1 -1.5
v 1.8 2.1 -1.5
v 2.2 2.1 -1.5
v 3.3 2.1 -1.5
v 0.7 2.1 -1.8
v 1.8 2.1 -1.8
v 2.2 2.1 -1.8
v 3.3 2.1 -1.8
v 1.9 2.1 -2.6
v 2.1 2.1 -2.6
v 1.9 2.1 -2.9
v 2.1 2.1 -2.9
v 1.9 2.2 -0.6
v 2.1 2.2 -0.6
v 1.9 2.2 -1
v 2.1 2.2 -1
v 0.7 2.2 -1.5
v 1.8 2.2 -1.5
v 2.2 2.2 -1.5
v 3.3 2.2 -1.5
v 0.7 2.2 -1.8
v 1.8 2.2 -1.8
v 2.2 2.2 -1.8
v 3.3 2.2 -1.8
v 1.9 2.2 -2.7
v 2.1 2.2 -2.7
v 1.9 2.2 -2.9
v 2.1 2.2 -2.9
v 1.9 2.3 -1
v 2.1 2.3 -1
v 1.9 2.3 -2.7
v 2.1 2.3 -2.7

# faces
f 3/2/1 2/2/1 1/2/1
f 4/2/1 2/2/1 3/2/1
f 9/1/1 6/1/1 5/1/1
f 10/2/1 7/2/1 6/2/1
f 12/1/1 9/1/1 8/1/1
f 13/2/1 11/2/1 10/2/1
f 13/1/1 9/1/1 12/1/1
f 13/1/1 6/1/1 9/1/1
f 13/2/1 10/2/1 6/2/1
f 14/2/1 11/2/1 13/2/1
f 15/2/1 11/2/1 14/2/1
f 16/2/1 14/2/1 13/2/1
f 17/2/1 14/2/1 16/2/1
f 20/2/1 19/2/1 18/2/1
f 21/2/1 19/2/1 20/2/1
f 22/2/2 23/2/2 24/2/2
f 24/2/2 23/2/2 25/2/2
f 26/1/2 27/1/2 30/1/2
f 27/2/2 28/2/2 31/2/2
f 29/1/2 30/1/2 33/1/2
f 31/2/2 32/2/2 34/2/2
f 33/1/2 30/1/2 34/1/2
f 30/1/2 27/1/2 34/1/2
f 27/2/2 31/2/2 34/2/2
f 34/2/2 32/2/2 35/2/2
f 35/2/2 32/2/2 36/2/2
f 34/2/2 35/2/2 37/2/2
f 37/2/2 35/2/2 38/2/2
f 39/2/2 40/2/2 41/2/2
f 41/2/2 40/2/2 42/2/2
f 45/1/3 44/1/3 43/1/3
f 46/1/3 44/1/3 45/1/3
f 49/1/3 48/1/3 47/1/3
f 50/1/3 48/1/3 49/1/3
f 53/2/3 52/2/3 51/2/3
f 54/2/3 52/2/3 53/2/3
f 57/2/3 56/2/3 55/2/3
f 58/2/3 56/2/3 57/2/3
f 61/2/3 60/2/3 59/2/3
f 62/2/3 60/2/3 61/2/3
f 63/2/4 64/2/4 65/2/4
f 65/2/4 64/2/4 66/2/4
f 67/2/4 68/2/4 69/2/4
f 69/2/4 68/2/4 70/2/4
f 71/2/4 72/2/4 73/2/4
f 73/2/4 72/2/4 74/2/4
f 75/2/4 76/2/4 77/2/4
f 77/2/4 76/2/4 78/2/4
f 79/2/4 80/2/4 81/2/4
f 81/2/4 80/2/4 82/2/4
f 85/1/5 84/1/5 83/1/5
f 86/1/5 84/1/5 85/1/5
f 87/2/5 86/2/5 85/2/5
f 88/2/5 86/2/5 87/2/5
f 91/1/5 90/1/5 89/1/5
f 92/1/5 90/1/5 91/1/5
f 97/2/5 94/2/5 93/2/5
f 98/2/5 94/2/5 97/2/5
f 99/2/5 96/2/5 95/2/5
f 100/2/5 96/2/5 99/2/5
f 103/2/5 102/2/5 101/2/5
f 104/2/5 102/2/5 103/2/5
f 105/1/6 106/1/6 107/1/6
f 107/1/6 106/1/6 108/1/6
f 109/2/6 110/2/6 113/2/6
f 113/2/6 110/2/6 114/2/6
f 111/2/6 112/2/6 115/2/6
f 115/2/6 112/2/6 116/2/6
f 117/2/6 118/2/6 119/2/6
f 119/2/6 118/2/6 120/2/6
f 121/2/6 122/2/6 123/2/6
f 123/2/6 122/2/6 124/2/6
