# This file uses centimeters as units for non-parametric coordinates.

mtllib SM_Sandbank_A1_ML.mtl
g default
v 0.000000 2.000000 2.003536
v 0.000000 2.000000 -10.000000
v 0.000000 4.400001 -1.000000
v 0.000000 4.400001 -10.000000
v 10.000000 2.000000 2.003536
v 10.000000 2.000000 -10.000000
v 10.000000 4.400001 -1.000000
v 10.000000 4.400001 -10.000000
vt 0.966797 0.500000
vt 0.966797 0.500000
vt 0.966797 0.500000
vt 0.966797 0.500000
vt 0.966797 0.500000
vt 0.966797 0.500000
vt 0.966797 0.500000
vt 0.966797 0.500000
vt 0.966797 0.500000
vt 0.966797 0.500000
vt 0.966797 0.500000
vt 0.966797 0.500000
vt 0.966797 0.500000
vt 0.966797 0.500000
vt 0.966797 0.500000
vt 0.966797 0.500000
vt 0.966797 0.500000
vt 0.966797 0.500000
vt 0.966797 0.500000
vt 0.966797 0.500000
vt 0.966797 0.500000
vt 0.966797 0.500000
vt 0.966797 0.500000
vt 0.966797 0.500000
vn -1.000000 0.000000 0.000000
vn -1.000000 0.000000 0.000000
vn -1.000000 0.000000 0.000000
vn -1.000000 0.000000 0.000000
vn 1.000000 0.000000 0.000000
vn 1.000000 0.000000 0.000000
vn 1.000000 0.000000 0.000000
vn 1.000000 0.000000 0.000000
vn 0.000000 0.000000 1.000000
vn 0.000000 0.000000 1.000000
vn 0.000000 0.000000 1.000000
vn 0.000000 0.000000 1.000000
vn 0.000000 0.000000 -1.000000
vn 0.000000 0.000000 -1.000000
vn 0.000000 0.000000 -1.000000
vn 0.000000 0.000000 -1.000000
vn 0.000000 -1.000000 0.000000
vn 0.000000 -1.000000 0.000000
vn 0.000000 -1.000000 0.000000
vn 0.000000 -1.000000 0.000000
vn 0.000000 1.000000 0.000000
vn 0.000000 1.000000 0.000000
vn 0.000000 1.000000 0.000000
vn 0.000000 1.000000 0.000000
s off
g SM_Sandbank_A1_ML:Mesh
usemtl SM_Sandbank_A1_ML:palette
f 2/2/1 1/3/2 3/1/3 4/4/4
f 7/6/5 5/5/6 6/7/7 8/8/8
f 3/9/9 1/10/10 5/12/11 7/11/12
f 6/14/13 2/13/14 4/15/15 8/16/16
f 5/17/17 1/18/18 2/20/19 6/19/20
f 4/22/21 3/21/22 7/23/23 8/24/24
